<svg width="64" height="52" viewBox="0 0 64 52" fill="none" xmlns="http://www.w3.org/2000/svg">
<g filter="url(#filter0_d_21501_7)">
<path d="M49.6052 18.5099C49.9505 16.2564 50.1232 14.4535 50.1232 13.1014C50.1232 12.1549 50.0368 11.4113 49.8642 10.8704C49.7347 10.3296 49.562 10.0592 49.3462 10.0592C48.6988 10.0592 47.9435 10.6225 47.0803 11.7493C46.2601 12.8761 45.548 14.2282 44.9437 15.8056C44.3826 17.3381 44.1021 18.7127 44.1021 19.9296C44.1021 21.462 44.8143 23.0169 46.2386 24.5944C47.706 26.1268 49.8425 28.0198 52.6481 30.2732C54.763 31.8958 56.3385 33.2479 57.3743 34.3296C58.4102 35.3662 58.9497 36.3126 58.9929 37.169C59.036 39.062 58.0865 40.9324 56.1442 42.7803C54.202 44.5831 51.7633 46.0705 48.8283 47.2423C45.9364 48.414 43.2388 49 40.7355 49C38.7932 49 36.7862 48.5043 34.7144 47.5127C32.6426 46.4761 30.9161 45.2817 29.535 43.9296C28.1537 42.5324 27.4416 41.3155 27.3985 40.2789C27.3121 38.2958 27.938 36.6958 29.276 35.4789C30.614 34.2169 32.4052 33.5859 34.6497 33.5859C35.7718 33.5859 36.9157 33.7436 38.081 34.0592C38.599 37.0338 39.0522 39.1747 39.4406 40.4817C41.9871 39.8056 44.7495 38.6338 47.7277 36.9662C38.1026 29.3493 33.2901 23.4 33.2901 19.1183C33.2901 17.045 34.0238 14.5662 35.4913 11.6817C36.9588 8.75211 38.901 6.2507 41.3182 4.17746C43.7352 2.05915 46.2817 1 48.9578 1C50.9432 1 52.8639 1.69859 54.7199 3.09577C56.5758 4.49296 58.0865 6.20563 59.2519 8.2338C60.4172 10.262 60.9999 12.1549 60.9999 13.9127C60.9999 15.6253 60.3309 17 58.9929 18.0366C57.6981 19.0282 56.0795 19.5239 54.1372 19.5239C52.6265 19.5239 51.1158 19.1859 49.6052 18.5099Z" fill="#C63264"/>
</g>
<g filter="url(#filter1_d_21501_7)">
<path d="M30.0047 1C30.8248 1.49577 31.4291 2.19437 31.8175 3.09577C32.2492 3.95211 32.4649 4.89859 32.4649 5.93521C32.4649 6.83662 32.2923 7.73802 31.947 8.63944C31.6017 9.54081 31.1485 10.2845 30.5874 10.8704C25.667 10.9605 21.027 11.186 16.6677 11.5465C16.452 12.493 15.9988 14.5887 15.3081 17.8338C15.2218 18.2394 14.9412 19.6592 14.4665 22.093C19.0848 21.6873 22.732 21.1465 25.408 20.4704C26.2712 21.0113 26.9186 21.7324 27.3503 22.6338C27.825 23.4902 28.0624 24.4367 28.0624 25.4732C28.0624 26.4197 27.8682 27.3211 27.4798 28.1775C27.1345 28.9887 26.6381 29.6423 25.9907 30.138C25.1706 30.2281 24.3506 30.2957 23.5304 30.3408C22.7535 30.386 21.9982 30.431 21.2645 30.4761L13.1716 31.0845C12.8264 33.3831 12.481 36.1098 12.1357 39.2648C11.7473 42.6451 11.402 45.0113 11.0999 46.3634C10.7977 47.6704 10.3014 48.324 9.61077 48.324C8.5317 48.324 7.30159 47.9408 5.92044 47.1747C4.58242 46.3634 3.41706 45.4394 2.42434 44.4028C1.47478 43.3211 1 42.4423 1 41.7662C1 41.0901 1.21581 39.6028 1.64743 37.3042C2.1222 35.0056 2.64014 32.5267 3.20125 29.8676C5.14353 21.124 6.28732 15.1296 6.63261 11.8845L3.91342 12.0873C3.09334 11.6366 2.42434 10.9831 1.9064 10.1268C1.43162 9.22539 1.19423 8.2563 1.19423 7.21972C1.19423 5.4169 1.86323 3.81691 3.20125 2.41972C9.11438 2.32957 14.2507 2.19436 18.61 2.01408C23.0125 1.8338 26.8108 1.49577 30.0047 1Z" fill="#C63264"/>
</g>
<defs>
<filter id="filter0_d_21501_7" x="26.5906" y="0.2" width="37.2093" height="51.6" filterUnits="userSpaceOnUse" color-interpolation-filters="sRGB">
<feFlood flood-opacity="0" result="BackgroundImageFix"/>
<feColorMatrix in="SourceAlpha" type="matrix" values="0 0 0 0 0 0 0 0 0 0 0 0 0 0 0 0 0 0 127 0" result="hardAlpha"/>
<feOffset dx="1" dy="1"/>
<feGaussianBlur stdDeviation="0.9"/>
<feComposite in2="hardAlpha" operator="out"/>
<feColorMatrix type="matrix" values="0 0 0 0 0.776471 0 0 0 0 0.196078 0 0 0 0 0.392157 0 0 0 0.65 0"/>
<feBlend mode="normal" in2="BackgroundImageFix" result="effect1_dropShadow_21501_7"/>
<feBlend mode="normal" in="SourceGraphic" in2="effect1_dropShadow_21501_7" result="shape"/>
</filter>
<filter id="filter1_d_21501_7" x="0.2" y="0.2" width="35.065" height="50.924" filterUnits="userSpaceOnUse" color-interpolation-filters="sRGB">
<feFlood flood-opacity="0" result="BackgroundImageFix"/>
<feColorMatrix in="SourceAlpha" type="matrix" values="0 0 0 0 0 0 0 0 0 0 0 0 0 0 0 0 0 0 127 0" result="hardAlpha"/>
<feOffset dx="1" dy="1"/>
<feGaussianBlur stdDeviation="0.9"/>
<feComposite in2="hardAlpha" operator="out"/>
<feColorMatrix type="matrix" values="0 0 0 0 0.776471 0 0 0 0 0.196078 0 0 0 0 0.392157 0 0 0 0.65 0"/>
<feBlend mode="normal" in2="BackgroundImageFix" result="effect1_dropShadow_21501_7"/>
<feBlend mode="normal" in="SourceGraphic" in2="effect1_dropShadow_21501_7" result="shape"/>
</filter>
</defs>
</svg>
